<svg width="134" height="45" viewBox="0 0 134 45" fill="none" xmlns="http://www.w3.org/2000/svg">
<path d="M14.1429 29.6854H18.1838L10.4751 7.30566H7.70868L0 29.6854H2.4245L4.56926 23.1851H11.9671L14.1429 29.6854ZM5.19093 21.3278L8.2371 12.1654L11.3144 21.3278H5.19093Z" fill="#1A2630"/>
<path d="M19.7185 9.1629H25.0959C25.7176 9.1629 25.9663 9.37958 25.9663 9.99866V29.6854H29.6963V9.99866C29.6963 9.34863 29.9139 9.1629 30.5355 9.1629H35.944V7.30566H19.7185V9.1629Z" fill="#1A2630"/>
<path d="M44.1469 10.2463C44.1469 9.59626 44.2402 9.1629 44.924 9.1629H51.3272V7.30566H40.4169V29.6854H51.7623V27.8282H45.1416C44.3334 27.8282 44.1469 27.5496 44.1469 26.6519V18.6658H50.3325V16.8085H44.1469V10.2463Z" fill="#1A2630"/>
<path d="M61.8919 27.8282C60.9283 27.8282 60.6175 27.5186 60.6175 26.3424V7.30566H56.8874V29.6854H67.891V27.8282H61.8919Z" fill="#1A2630"/>
<path d="M76.0256 7.30566H72.2956V29.6854H76.0256V7.30566Z" fill="#1A2630"/>
<path d="M87.184 10.2463C87.184 9.59626 87.2773 9.1629 87.9611 9.1629H94.3643V7.30566H83.454V29.6854H94.7995V27.8282H88.1787C87.3705 27.8282 87.184 27.5496 87.184 26.6519V18.6658H93.3696V16.8085H87.184V10.2463Z" fill="#1A2630"/>
<path d="M115.591 29.6854L107.478 17.4586C111.674 15.7252 113.632 13.6822 113.632 11.3916C113.632 8.42001 110.928 7.30566 105.333 7.30566H99.9246V29.6854H103.655V18.5729H103.903L111.115 29.6854H115.591ZM103.655 9.87485C103.655 9.00813 104.152 8.72955 105.178 8.72955C107.602 8.72955 109.312 9.72008 109.312 12.1964C109.312 14.7965 106.856 16.53 103.655 17.7062V9.87485Z" fill="#1A2630"/>
<path d="M116.842 7.30566L123.556 18.4182V29.6854H127.286V18.4182L134 7.30566H131.358L126.416 15.9418L121.225 7.30566H116.842Z" fill="#1A2630"/>
<path d="M93.2644 0.30954C93.0157 0.680988 92.6323 1.16593 92.1143 1.76438C91.5962 2.34219 91.0367 2.93031 90.4358 3.52876C89.8556 4.10656 89.3168 4.58119 88.8194 4.95264H87.0166V4.58119C87.3274 4.18911 87.659 3.7248 88.0113 3.18826C88.3843 2.65173 88.7469 2.10487 89.0992 1.5477C89.4515 0.969892 89.7416 0.453992 89.9695 0H93.2644V0.30954Z" fill="#1A2630"/>
<path d="M59.6479 40.5061V42.3756H57.8318V40.5061H57.1592V44.9087H57.8318V42.9236H59.6479V44.9087H60.3205V40.5061H59.6479Z" fill="#1A2630"/>
<path d="M64.136 40.4148C62.9008 40.4148 62.1731 41.182 62.1731 42.5643C62.1731 43.8553 63.0048 45 64.3378 45C65.5852 45 66.319 44.245 66.319 42.8505C66.319 41.5048 65.4568 40.4148 64.136 40.4148ZM62.858 42.3207C62.858 41.4743 63.3227 40.9933 63.9648 40.9933C64.9431 40.9933 65.6341 41.9858 65.6341 43.0941C65.6341 43.9344 65.1694 44.4216 64.5212 44.4216C63.5551 44.4216 62.858 43.4229 62.858 42.3207Z" fill="#1A2630"/>
<path d="M68.1691 40.5061V44.9087H68.8417V41.8032H68.8906L70.2298 44.0197H70.2665L71.6056 41.8032H71.6545V44.9087H72.3271V40.5061H71.7157L70.3093 42.8383H70.2848L68.8784 40.5061H68.1691Z" fill="#1A2630"/>
<path d="M75.2245 41.2673C75.2245 41.1394 75.2428 41.0542 75.3774 41.0542H76.9427V40.5061H74.5519V44.9087H77.0283V44.3607H75.4202C75.2612 44.3607 75.2245 44.3059 75.2245 44.1293V42.9236H76.7471V42.3756H75.2245V41.2673Z" fill="#1A2630"/>
<path fill-rule="evenodd" clip-rule="evenodd" d="M51.3482 43.3865L10.8379 43.3865V43.1328L51.3482 43.1328V43.3865Z" fill="#1A2630"/>
<path fill-rule="evenodd" clip-rule="evenodd" d="M123.196 43.3865L82.6855 43.3865V43.1328L123.196 43.1328V43.3865Z" fill="#1A2630"/>
</svg>
